<svg width="60" height="60" viewBox="0 0 60 60" fill="none" xmlns="http://www.w3.org/2000/svg">
<path d="M0 20C0 8.9543 8.95431 0 20 0H40C51.0457 0 60 8.95431 60 20V40C60 51.0457 51.0457 60 40 60H20C8.9543 60 0 51.0457 0 40V20Z" fill="#00D95F"/>
<path d="M21.4878 42.158C18.6041 42.9275 15.9688 40.287 16.7439 37.4049C17.0059 36.4308 16.8561 35.402 16.4616 34.4737C15.2818 31.6976 14.9734 28.615 15.5991 25.6394C16.3332 22.1485 18.3036 19.039 21.1488 16.8815C23.9939 14.7239 27.523 13.6631 31.0885 13.8935C34.6539 14.1241 38.0165 15.6305 40.5591 18.1363C43.1019 20.6422 44.6541 23.9794 44.9311 27.5356C45.2081 31.0918 44.1912 34.6285 42.0671 37.4966C39.943 40.3648 36.854 42.3719 33.3672 43.1499C30.3895 43.8143 27.2922 43.5441 24.4924 42.397C23.5664 42.0176 22.5461 41.8756 21.5792 42.1336L21.4878 42.158ZM22.9126 38.8864C23.2718 38.7908 23.6543 38.8437 23.9741 39.0331C26.2521 40.3812 28.9128 40.9389 31.5416 40.6197C34.1703 40.3004 36.6194 39.1219 38.5073 37.268C40.3951 35.414 41.6156 32.9886 41.9786 30.3699C42.3415 27.7511 41.8266 25.086 40.514 22.7899C39.2014 20.4938 37.1648 18.6957 34.7217 17.6758C32.2786 16.6558 29.5662 16.4714 27.007 17.1511C24.448 17.8309 22.186 19.3367 20.5737 21.434C18.9613 23.5312 18.0891 26.1019 18.0931 28.7457C18.091 30.9378 18.6982 33.0874 19.8472 34.9554C20.0475 35.2849 20.104 35.6821 20.0037 36.0545L19.9222 36.3572C19.4933 37.9493 20.9482 39.4089 22.5416 38.9851L22.9126 38.8864Z" fill="white"/>
<path fill-rule="evenodd" clip-rule="evenodd" d="M36.5761 31.3731C35.9637 30.9426 35.3353 30.4812 34.6054 30.315C33.8755 30.1488 33.1232 30.4835 32.7147 31.1109C32.5413 31.3773 32.3844 31.6512 32.2276 31.8413C32.1526 31.9447 32.0423 32.0172 31.9175 32.0453C31.7926 32.0733 31.6619 32.0549 31.5497 31.9936C29.6706 31.2588 28.0749 29.9532 26.9846 28.2667C26.8249 28.0198 26.6026 27.7701 26.6306 27.4774C26.6449 27.3291 26.7162 27.192 26.8296 27.0952C27.0081 26.9187 27.1654 26.7233 27.2988 26.513C27.6247 25.9993 27.7393 25.3652 27.5959 24.7739C27.4636 24.2282 27.2293 23.7052 26.953 23.2163C26.8817 23.0902 26.8036 22.9681 26.7189 22.8506C26.3412 22.3261 25.7451 21.9103 25.1061 22.0082C24.7829 22.0578 24.4809 22.1996 24.2365 22.4167C23.8123 22.7821 23.4757 23.2378 23.2513 23.7502C23.0269 24.2626 22.9205 24.8188 22.94 25.3778C22.9413 25.6917 22.9812 26.0042 23.0586 26.3084C23.2554 27.0393 23.558 27.7375 23.9569 28.3811C24.2446 28.8741 24.5586 29.3513 24.8975 29.8108C25.9987 31.3201 27.383 32.6015 28.9736 33.584C29.7717 34.0833 30.6247 34.4893 31.5158 34.7938C32.4415 35.2128 33.4635 35.3735 34.4733 35.2592C35.0486 35.1722 35.5938 34.9454 36.0607 34.5988C36.5277 34.252 36.9021 33.7961 37.1511 33.271C37.2974 32.9538 37.3418 32.5992 37.2782 32.2558C37.1999 31.8953 36.9139 31.6106 36.5761 31.3731Z" fill="white"/>
</svg>
