<svg width="60" height="60" viewBox="0 0 60 60" fill="none" xmlns="http://www.w3.org/2000/svg">
<path d="M51 0H9C4.02944 0 0 4.02944 0 9V51C0 55.9706 4.02944 60 9 60H51C55.9706 60 60 55.9706 60 51V9C60 4.02944 55.9706 0 51 0Z" fill="#1877F2"/>
<path d="M41.6719 38.6719L43.0078 30H34.6875V24.375C34.6875 22.0078 35.8477 19.6875 39.5742 19.6875H43.3594V12.3047C43.3594 12.3047 39.9258 11.7188 36.6445 11.7188C29.7891 11.7188 25.3125 15.8672 25.3125 23.3906V30H17.6953V38.6719H25.3125V60H34.6875V38.6719H41.6719Z" fill="white"/>
</svg>
